/* XPM */
static char *d4ad9fa815c54b5691da6665c9c0b28fbLachfO7wB01zdUe[] = {
/* columns rows colors chars-per-pixel */
"64 64 7 1 ",
"  c #CFC01D",
". c #CFC31F",
"X c #EDD713",
"o c #709AD1",
"O c gray56",
"+ c #B8DCFE",
"@ c white",
/* pixels */
"oooooooooooooooooooooooooooooooooooooooooooooooooooooooooooooooo",
"oooooooooooooooooooooooooooooooooooooooooooooooooooooooooooooooo",
"oooooooooooooooooooooooooooooooooooooooo@ooooooooooooooooooooooo",
"oooooooooooooooooooo@oooooooooo oooooooooooooooooooooooooooooooo",
"ooooooo@ooooooooooooooooooooooo.oooooooooooooooooooooooooooooooo",
"ooooooooooooooooooooooooooooooo.oooooooooooooooooooooooooooooooo",
"ooooooooooooooooooooooooooooooo.oooooooooooooooooooooooooooooooo",
"oooooooooooooo@ooooooooooooooo...ooooooooooooooooooooooooo@ooooo",
"ooooooooooooooooooooooooooXoo..X..ooXoooooooooooooo@oooooooooooo",
"ooooooooooooooooooooooooooXoo.XXX.ooXooooooooooooooooooooooooooo",
"ooooooooooooooooooooooooooXo..XXX..oXooooooooooooooooooooooooooo",
"oooooooooooooooooooooXooooX.ooXXXoo.XooooXoooooooooooooooooooooo",
"oooooooooooooooooooooXooo...ooXXXoo...oooXoooooooooooooooooooooo",
"oooooooooooooooooooooXo...XoooXXXoooX...oXoooooooooooooooooooooo",
"ooooooooooooooooXooo.....oXoooXXXoooXo.....oooXooooooooooooooooo",
"ooooooooooooooooXoo...ooooXoooXXXoooXoooo...ooXooooooooooooooooo",
"ooooooo@ooooooooXoo.oXooooXoooXXXoooXooooXo.ooXooooooooooooooooo",
"ooooooooooo oooo....oXooooXoooXXXo@oXooooXo....ooooooooooooooooo",
"ooooooooooo oo.....ooXooooXoooXXXoooXooooXoo....oooo ooooooooooo",
"oooooooooo   ...XooooXooooXoooXXXoooXooooXooooX...oo ooooooooooo",
"oooooooooo...oooXooooXooooXoooXXXoooXooooXooooXoo..   oooooooooo",
"oooooooooo...oooXooooXooooXoooXXXoooXooooXooooXoooo...oooooo@ooo",
"oooooooooo...oooXo@ooXooooXoooXXXoooXooooXooooXoooo...oooooooooo",
"oooooooooo...oooXooooXooooXoooXXXoooXooooXooooXo@oo...oooooooooo",
"oooooooooo...oooXoooXXXoooXoooXXXoooXoooXXXoooXoooo...oooooooooo",
"ooo@oooooo...oooXooXXXXXooXoooXXXoooXooXXXXXooXoooo...oooooooooo",
"oooooooooo...oooXooXXXXXooXoooXXXoooXooXXXXXooXoooo...oooooooooo",
"oooooooooo......X..XXXXX..X...XXX...X..XXXXX..X.......oooooooooo",
"oooooooooo...oooXooXXXXXooXoooXXXoooXooXXXXXooXoooo...oooooooooo",
"oooooooooo...oooXoooXXXoooXoooXXXoooXoooXXXoooXoooo...oooooooooo",
"oooooo@ooo...oooXooooXooooXoooXXXoooXooooXooooXoooo...ooo@oooooo",
"oooooooooo...oooXooooXooooXoooXXXoooXooooXooooXoooo...oooooooooo",
"oooooooooo...oooXooooXoo@oXoooXXXo@oXooooXooooXoooo...oooooooooo",
"oooooooooo...oooXooooXooooXoooXXXoooXo@ooXooooXoooo...oooooooooo",
"oooooooooo...oooXooooXooooXoooXXXoooXooooXooooXoooo...oooooooooo",
"oooooooooo...oooXooooXooooXoooXXXoooXooooXooooXoooo...oooooooooo",
"oooooooooo...oooXooooXooooXoooXXXoooXooooXooooXoooo...oooooooooo",
"oooooooooo...oo@XooooXooooXoooXXXoooXooooXooooXo@oo...oooooooooo",
"oooooooooo...oooXooooXooooXoooXXXoooXooooXooooXoooo...oooooooooo",
"oooooooooo...oooXooooXooooXoooXXXoooXooooXooooXoooo...oo@ooooooo",
"oooooooooo...oooXooooXooooXoooXXOOOoXooooXooooXoooo...oooooooooo",
"oooooooooo...oooXooooXooooXoooOO@@@OOooooXooooXoooo...oooooooooo",
"oooooooooo......X....X....X..O@@@@@@@O...X ...X.......oooooooooo",
"oooooooooo...oooXooooXo@ooXooO@@@@@@@OoooOOOOoXoooo...oooooooooo",
"oooo@ooooo...oooXooooXooooXoO@@@@@@@@@O@O@@@@OXoooo...oooooooooo",
"oooooooooo......X....X..OOO.OOOO@@@@@@@O@@@@@@O.......oooooo@ooo",
"oooooooooo...oooXooooXoO@@@OO@@@OO@@@@+@@@@@@@@Oooo...oooooooooo",
"oooooooooo...oooXooooXO+@@O@@@@@@@O@@+@@@@@@@@+Oooo...oooooooooo",
"oooooooooo...oooXooooXO++@O@@@@@@@O@++OOOO@@@++OOOO...oooooooooo",
"oooooooooo...oOOOooooXO++O@@@@@@@@@O+O@@@@O+++OO@@@OO.oooooooooo",
"oooooooooo..OO@@@OOooOOOOO@@@@@@@@@@O@@@@@@OOO@@@@@@@Ooooooooooo",
"oooooooooo.O@@@@@@@OO@@@O@+@@@@@@@@+@@@@@@@@OO@@@@@@@OoooOOOOooo",
"oooooooooo.O@@@@@@@O+@@OOOO+@@@@OOO@@@@@@@@+O@@@@@@@@@OoO@@@@Ooo",
"ooooooooooO@@@@@@@@@O+O@@@@O+@OO@@@OO@@@OOO+O@@@@@@@@@@O@@@@@@Oo",
"ooooooOOOoO@@@@@@@@@@O@@@@@@OO@@@@@@@O+O@@@O@+@@@@@@@@+@@@@@@@@O",
"oooooO@@@O@+@@@@@@@@+@@@@@@@@O@@@@@@@OO+@OOOO@+@@@@@@+@@@@@@@@+O",
"ooooO+@@@@@@+@@@@@@+@@@@@@@@O@@@@@@@@@O+O@@@@O++@@@@++@@@@@@@++O",
"o@ooO++@@@@@++@@@@++@@@@OOO+O@@@@@@@@@@O@@@@@@O++++++++++++++++O",
"ooooO++++++++++++++++++O@@@O@+@@@@@@@@+@@@@@@@@OOOOOOOOOOOOOOOOo",
"oooooOOOOOOOOOOOOOOOOOO+@@@@@@+@@@@@@+@@@@@@@@+Ooooooooooooooooo",
"ooooooooooooooooooooooO++@@@@@++@@@@++@@@@@@@++Ooooooooooooooooo",
"ooooooooooooooooooooooO++++++++++++++++++++++++Ooooooooooooooooo",
"oooooooooooooooooooooooOOOOOOOOOOOOOOOOOOOOOOOOooooooooooooooooo",
"oooooooooooooooooooooooooooooooooooooooooooooooooooooooooooooooo"
};
