/* XPM */
static char *e43095cfb9214dfb8fb8d9c8d08d62c3AKTdj0mMUi4UnFal[] = {
/* columns rows colors chars-per-pixel */
"64 64 66 1 ",
"  c #0E0E2C",
". c #0F0E2C",
"X c #0E0F2C",
"o c #0F0E2D",
"O c #24142C",
"+ c #25142C",
"@ c #24152C",
"# c #24142D",
"$ c #25142D",
"% c #24152D",
"& c #35003A",
"* c #34003B",
"= c #64004C",
"- c #64014C",
"; c #65014C",
": c #64004D",
"> c #5A527C",
", c #5B527C",
"< c #5A537C",
"1 c #5B537C",
"2 c #5A527D",
"3 c #5B527D",
"4 c #9B0E3E",
"5 c #9A0F3E",
"6 c #9B0F3E",
"7 c #9B0E3F",
"8 c #9A0F3F",
"9 c #9B0F3F",
"0 c #D41E3C",
"q c #D51E3C",
"w c #D41E3D",
"e c #D51E3D",
"r c #ED4C40",
"t c #EC4C41",
"y c #ED4C41",
"u c #6D97D0",
"i c #6F98D0",
"p c #6F98D1",
"a c #6E99D1",
"s c #6C9AD1",
"d c #6F9AD0",
"f c #6E9BD2",
"g c #709AD1",
"h c #719AD1",
"j c #928EB8",
"k c #938EB8",
"l c #928FB8",
"z c #938FB8",
"x c #928EB9",
"c c #938EB9",
"v c #928FB9",
"b c #938FB9",
"n c #81A6D7",
"m c #8FB0DB",
"M c #95B4DD",
"N c #99B7DE",
"B c #A2BDE1",
"V c #C6D4E0",
"C c #C7D4E0",
"Z c #C7D5E0",
"A c #C6D4E1",
"S c #C7D4E1",
"D c #C6D5E1",
"F c #DBE6F4",
"G c #ECF2F9",
"H c white",
/* pixels */
"gggggggggggggggggggggggggggggggggggggggggggggggggggggggggggggggg",
"gggggggggggggggggggggggggggggggggggggggggggggggggggggggggggggggg",
"gggggggggggggggggggggggggggggggggggggggggggggggggggggggggggggggg",
"gggggggggggggggggggggggggggggggggggggggggggggggggggggggggggggggg",
"gggggggggggggggggggggggggggggggggggggggggggggggggggggggggggggggg",
"gggggggggggggggggggggggggggggggggggggggggggggggggggggggggggggggg",
"gggggggggggggggggggggggggggggggggggggggggggggggggggggggggggggggg",
"ggggggggggggggggggggggggggggggggggggggggggggggafgggggggggggggggg",
"gggggggggggggggggggggggggggggggggggggggoDSZZZZbagggggggggggggggg",
"ggggggggggggggggggggaggggggggggggggga..DASZZZSZkbggggggggggggggg",
"ggggggggggggggggggagagggggggggggggggg.XVSAZZSSDbbggggggggggggggg",
"ggggggggggggggggggaXkkDSZDaggaggggggXZADgggaga,SZagggggggggggggg",
"ggggggggggggggggggozZZSSAZzzagggggaXbZDagagkbb,SDggggggggggggggg",
"gggggggggggggggggaXjVSSDAZzzaaagagaojZDaaaakvk,ADggggggggggggggg",
"ggggggggggggggggaa.SkkguugVVAkaagXXkZaaabkb<<DAggggggggggggggggg",
"ggggggggggggggggga.D<<kgggguZDwwDZVZ<kkb<,DDAwgggggggggggggggggg",
"gggggggggggggggguap.SS,,<kAVjzbbVkkZZVADZDb-=qaagggggggggggggggg",
"gggggggggggggggdggg.SS,1<jAVjzkkDbkZZVVDZDb-=qaggggggggggggggggg",
"ggggggggggggggggggigoobbjZbbjkDZDkbzkklkbbZ0qyaggggggggggggggggg",
"gggggggggggggggggig.kkDDDlzzjZZZkkbbbkbbZZZyyyaggggggggggggggggg",
"ggggggggggggggggaggobjZZVkkbjVVVkkkkkbbbDVVtyrgggggggggggggggggg",
"ggggggggggggggugggg.884888kkjj887877888kZZkweagggggggggggggggggg",
"ggggggggggggggguigg.884888bkjz887887997ckkDttfgggggggggggggggggg",
"gggggggggggggggggiaa.o&=--**<<<<----=78AADDtygaggggggggggggggggg",
"ggggggggggggggduigggXX*===&*<<<<--===47DVVSrrgfggggggggggggggggg",
"gggggfgggggggggggihgXo8844==jjkv77484eeDZZSrrappgggggggggggggggg",
"ggggggggggggggggphhhoX4844==zzjz88888eeVVADtrpgpgggggggggggggggg",
"ggggagggggggggaghphpo.8448==zzjz78884eeVZZDtrpfggggggggggggggggg",
"ggaagfgggggggaagphgp..8844;;bbbb88848eeVZZZrygaggggggggggggggggg",
"gaaaggggggggggggppgg..8797;;bbbb84488qqVZZZrygagaggggggggggggggg",
"aaaagaaggggggggapggg.o7744=;bkbz84848qqZVCZttfgggggggggggggggggg",
"aggagggagggggggghpug.o7498==bbbz84448eeZVAVtyggagggggggggggfgggg",
"pgdggggggaggggggfdaaXX9799=;kkkk44444qqZSSS++ggpgpgpgggggagggggg",
"pggggigifggfgggggaiOoo-799;;bkbb8448=qeZcc+++gggpggggggggaaaggag",
"ppiggiigaaaaggggggu%oo:799;;bkck4448=weZcc+++agiggggggggfgaagggf",
"gpggigggaaaagggggi%OO%o--9==2vcc888==eeO+++pagggggggggggaffggagg",
"pphpgiggafafggggggOO##O#%%++OOOO+++OOOOO++ggugggggggggggaagggaag",
"ghhgigigaaagggggggOOOOOO%++++OOO+OOOOOOOhpggggagggggggaadgdgggga",
"ggggggggafaaggggaaOOOOOOOO++O+OO++OOOOOOphppggggggggggaauagggdif",
"ggggggggaaaagggggaa+OOOOOO%%OOOO%%OOOggghpgpgpgggggggaaaaaagafig",
"ggphppggpaaaggafadggigigaagggggiagdgggggigaaagaggggggaaggggiggug",
"gghpghgpppaggafagdgggigiguaggiiggggdagggguaagaaagggggagggggiuggg",
"phphhgggppgggaaaiggggguaaggagigaigdaggggaaaaaaagaaggggggggdgggag",
"hphpgggpuggggaaggggggggggguaiguggaggaaapgagaagaaaggggggggggiuugg",
"ggggggggaggggggggigggggggguagggggggggggpgggguggggggggggggggapppp",
"gpggggggaagggggggggiguagggggggggggggggpggggggauggggaaaggggaagpgg",
"gpgggggaigaggggagggggiaaggggaggggaggugaiggggauggggagggagaggappgg",
"phgggggggaggagappgigggagggugguiggugHgiggagggaggigugagggggaagaggg",
"hphpgHGHaguFguaguBHGHguBMmnguBBmHiugigHBugaHugHHFGnagHHGHBgggggg",
"phphNugHgigHgggggHgggggHgigigHgggggHgiHgHigBgaHuggugaHgggggggggg",
"hphpGguBiugHgggggHugugiHguigiGggiggHigHgHHgHgiHgaagggHgggggggggg",
"phphHHHHHgdHggiggHHHgdgHHHHggFFHHgiHgiHggHgHigHugHHaaHHHHHgggggg",
"hpgaHgggHggHgggguHgipgggggGuggggGgiHgiHugHgHgiHggiHugggggHgggggg",
"hpgaHgggHguHuggigHdgggugggFgugugFigHguHgigGHggHgggHgaagggHgggggg",
"ppgaHHFHHadHnHHiaHHHHggHHHBiggnBHagHggHgggFHggHHHHGaaMHHGHggHggg",
"ppgggaagugguggigggggguggugagggggagaggugggiggggggggagagggaggggggg",
"uggggggaggaggggiggaggggaaaagggggagggaggggaggpgggggiggggggggggggg",
"ggggggggguggggggagguugggggggggggguiggggggggggpgggggigggigagggggg",
"agggggaggggggggugggggggggggaggggggggggggggggpggggggggggggagggggg",
"ggggggaggugggggggggggggggaaggggggggigggggggggpggggagggggaggggggg",
"gggggpggaaggggggggggggggggaggagguggagggggaggggggggggggggaggggggg",
"ggggppaaggaaggugggggggggggggaggaggggguigggggggggguppgggggggggggg",
"gipgppaggguggggpggggggggggggggpgguggggggggagggggggpgiggiaggggggg",
"ugagguggggggggppgggggggggggggggpgggggggggggggggggaapgggggggggggg"
};
