/* XPM */
static char *_b7bb41d9f694fd6bc4cdadfe384b7edQbsApzVn5fjDffjD[] = {
/* columns rows colors chars-per-pixel */
"64 64 15 1 ",
"  c black",
". c #990030",
"X c #FF6F00",
"o c #FF8F00",
"O c #FF9800",
"+ c #FFB300",
"@ c #F9A825",
"# c #FFE100",
"$ c yellow",
"% c #FFEB3B",
"& c #FFB74D",
"* c #D500F9",
"= c #709AD1",
"- c #FFE0B2",
"; c white",
/* pixels */
"================================================================",
"================================================================",
"================================================================",
"================================================================",
"================================================================",
"================================================================",
"================================================================",
"================================================================",
"=======================       $$       =========================",
"====================== @$$$@ @$$@ @@$$@ ========================",
"=======================                =========================",
"============================= $$ ===============================",
"============================= $$ ===============================",
"============================      ==============================",
"=========================   XXXXXX   ===========================",
"======================== XXXooooooXXX ==========================",
"======================= Xooo+ +   oooX =========================",
"======================= $oo+ ++++ ++o$ =========================",
"====================== $$++ +++   +++$$ ========================",
"====================== $$+    + +++++$$ ========================",
"====================== $$++++ +   +++$$ ========================",
"====================== $$++++++++++++$$ ========================",
"====================== $o++         +o$ ========================",
"====================== Xo  oo++++ooo oX ========================",
"====================== X XX         X X ========================",
"=======================    && && &&&   =========================",
"======================== &&-- -- ---& ==========================",
"======================== &&-- -- ---& ==========================",
"======================== &&---------& ==========================",
"=========================  &&&&&&&&& ===========================",
"===========================         ============================",
"=============================     ======== === =================",
"=============================     ======== #=* =================",
"===========================   ...   =======# *==================",
"==========================     .     ====== * ==================",
"==========================  =  .  ==  ==== #** =================",
"==========================  =  .  ==  ==== ##* =================",
"==========================  =  .  ==  ===#  *  *================",
"==========================  =  .  ===  ==#==*==*================",
"========================== ==  .  ====   #==#==*================",
"=========================  ==     =====   # * *=================",
"========================   =       =====   #**==================",
"=========================== %%%%%%O ======  * ==================",
"=========================== %;;%%%O ========#===================",
"=========================== %;OOOOO ========*===================",
"=========================== %OO  OO ========*===================",
"=========================== %OO  OO ========#===================",
"=========================== %O == O ========*===================",
"=========================== %O == O ========*===================",
"=========================== %O == O ========*===================",
"=========================== %O == O ========#===================",
"=========================== %O == O ========*===================",
"===========================    =    ========#===================",
"=========================== %O = O% ========*===================",
"=========================== ;O = O; ========*===================",
"=========================== %O = O% ========#===================",
"=========================== %O = O% ========*===================",
"=========================== %O = O% ========*===================",
"=========================== %O = O% ========*===================",
"========================== ;%O = O% ========#===================",
"========================= %%OO = OO% ===========================",
"========================= OOO === OO ===========================",
"=========================    =====   ===========================",
"================================================================"
};
