/* XPM */
static char *_7e9a939deea4128ee086d92876b1b7fd1zhJHT2DaGhqN27[] = {
/* columns rows colors chars-per-pixel */
"64 64 11 1 ",
"  c #C7BC1E",
". c #FFF200",
"X c #EDEA39",
"o c #03A9F4",
"O c #709AD1",
"+ c gray56",
"@ c #B8DCFE",
"# c #A8E8FF",
"$ c #BFEEFF",
"% c #E3F8FF",
"& c white",
/* pixels */
"OOOOOOOOOOOOOOOOOOOOOOOOOOOOOOOOOOOOOOOOOOOOOOOOOOOOOOOOOOOOOOOO",
"OOOOOOOOOOOOOOOOOOOOOOOOOOOOOOOOOOOOOOOOOOOOOOOOOOOOOOOOOOOOOOOO",
"OOOOOOOOOOOOO+++OOOOOOOOOOOOOOOOOOOOOOO&OOOOOOOOOOOOOOOOOOOOOOOO",
"OOOOOOOOOOO++&&&++OOOOOOOOOOOOOOOOOOOOOOOOOOOOOOOOOOOOOOOOOOOOOO",
"OOOOOOOOOO+&&&&&&&+OOOOOOOOOOOOOOOOOOOOOOOOOOOOOOOOOOOOOOOOOOOOO",
"OOOOOOOOOO+&&&&&&&+OOO++++OOOOOOOOOOOOOOOOOOOOOOOOOOOOOOOOOOOOOO",
"OOOOOOOOO+&&&&&&&&&+O+&&&&+OOOOOOOOOOOOOOOOOOOOOOOOOOOOOOOOOOOOO",
"OOOOO+++O+&&&&&&&&&&+&&&&&&+OOOOOOOOOOOOOOOOOOOOOOOOOOOOOOOOOOOO",
"OOOO+&&&+&@&&&&&&&&@&&&&&&&&+OOOOOOOOOOOOOOOOOOOOOOOOOOOOOOOOOOO",
"OOO+@&&&&&&@&&&&&&@&&&&&&&&@+OOOOOOOOOOOOOOOOOOOOOOOOOOOOOOOOOOO",
"OOO+@@&&&&&@@&&&&@@&&&&&&&@@+OOOOOOOOOOOOOOOOOOOOOOOOO&OOOOOOOOO",
"OOO+@@@@@@@@@@@@@@@@@@@@@@@@+OOOOOOOOOOOOOOOOOOOOOOOOOOOOOOOOOOO",
"OOOO++++++++++++++++++++++++OOOOOOOOOOOOOOOOOOOOOOOOOOOOOOOOOOOO",
"OOOOOOOO OOOOOOOOOOOOOOOXOOOOOOOOOOOOOOOOOOOOOOOOOOOOOOOOOOOOOOO",
"OOOOOOOOO OOOOOOoOOOOOOXOOOOOOOOOOOOOOOOOOOOOOOO&OOOOOOOOOOOOOOO",
"OOOOOOOOOO OOOOoooOOOOXOOOOOOOOOOOOOOOOOOOOOOOOOOOOOOOOOOOOOOOOO",
"OOOOOOOOOO  OOOoooOOOXOOOOOOOOOOOOOOOOOOOOOOOOOOOOOOOOOOOOOOOOOO",
"OOOOOOOOOOO OOOOoOOOXOOOOOOOOOOOOOOOOOOOOOOOOOOOOOOOOOOOOOOOOOOO",
"OOOOO&OOOOO   OOOOOOXOOOOOOOOOOOOOOOOOOOOOOOOOOOOOOOOOOOOOOOOOOO",
"OOOOOOOOOOOOO  OOOOOXOOOOOOOOOOOOOOOOOOOOOOOOOOOOOOOOOOOOOOOOOOO",
"OOOOOOOOOOOOOO OOOOOOXOOOOOOOOOOOO&OOOOOOOOOOOOOOOOOOOOOOOOOOOOO",
"OOOOOOOOOOOOO OO&OOOOOXOOOOOOOOOOOOOOOOOOOOOOOOOOOOOOOOOOOOOOOOO",
"OOOOOOOOOOO  OOOOOOOOOXOOOOOOOOOOOOOOOOOOOOOOOOOOOOOOOOOOOOOOOOO",
"OOOOOOOOOO OOOOOOOOOOOOXOOOOOOOOOO&&&&&&&&&&&&&OOOOOOOOOOOOOOOOO",
"OOOOOOOOOO OOOOOOOOOOOOOOOOOOOOO$$&&&&&&&&&&&&&&OOOOOOOOOOOOOOOO",
"OOOOOOOOOOO OOOOOOOOOOOOOOOOOOOO$&&&&&&&&&&&&&&&&OOOOOOOOOOOOOOO",
"OOOOOOOOOOOO OOOOOOOOOOOOOOOOOO$$&&&&&&&&&&&&&&&&OOOOOOOOOOOOOOO",
"OOOOOooOOOOOOOOOOOOOOOOOOOOOOO$$&&&&&&&&&&&&&&&&&&OOOOOOOOOOOOOO",
"OOOOOooOOOOOOOOOOOOOOOOOOOOOOO$$&&&&&&&&&&&&&&&&&&OOOOOOOOOOOOOO",
"OOOOooooOOOOOOOOOOOOOOOOOOOOO&$$&&&&&&&&&&&&&&&&&&OOOOOOOOOOOOOO",
"OOOOooooOOOOOOOOOOOOO%%%%%&&&&$$&&&&&&&&&&&&&&&&&&%OOOOOOOOOOOOO",
"OOOOooooOOOOOOOOOOOO&$%%%%&&&&&$$&&&&&&&&&&&&&&&&%%OOOOOOOOOOOOO",
"OOOOooooOOOOOOOOOOO$$$%%%%%&&&&&$$&&&&&&%%%&&&&&%%%%OOOOOOOOOOOO",
"OOOOOooOOOOOOOOOOO$$$%%%%%%%&&&&&$$&&&&&%%%%%%%%%%%$%OOOOOOOOOOO",
"OOOOOOOOOOOOOOOOOO$$$%%%%%%%%%%%%&&&&&&%%%%%%%%%%%%$%%%%%%%%%OOO",
"OOOOOOOOOOOOOOOOOO$$$$%%%%%%%%%%%&&&&&%%%%%%%%%%%%$$$%%%%%%%%$OO",
"OOOOOOOOOOOOOOOOOO$$$$$%%%%%%%%%%%&&&%%%%%%%%%%%%%$$$$%%%%%%$$$O",
"OOOOOOOOOOOOOOOOOO$$$$$$%%%%%%%$%%%%%%%%%%$$%%%%%$$$$$$$$$$$$$$O",
"OOOOOOOOOOOOOOOOO$$$$$$$$$$$$$$$%%%%%%%%%$$$$$$$$$$$$$$$$$$$$$$O",
"OOOOOOOOOOOOOOOOO$$$$$$$$$$$$$$$$%%%%%%%$$$$$$$$$$$$$$$$$$$$$$$O",
"OOOOOOOOOOOOOOOOO$$$$$$$$$$$$$$$$%%%%%%$$$$$$$$$$$$$$$$$$$$$$$$O",
"OOOOOOOOOOOOOOOOOO$$$$$$$$$$$$$$$$$$$$$$$$$$$$$$$$$$$$$$$$$$$$OO",
"OOOOOOOOOOOOOOOOOOO$$$$$$$$$$$$$$$$$$$$$$$OOOOOO$$$$$$$$$$$$OOOO",
"OOOOOOOOOOOOOOO&#OOOOO$$$$$$OOO$$$$$$$$$$OOOOOOOOOOO$$$$$$$OOOOO",
"OOOO&OOOOOOOOOOOOOOOOO.OOOOOOOOOO$$$$$$$OOOOOOOOOOOOOOOOOO OOOOO",
"OOOOOOOOOOOOOOOO&O&#OOO.OOOOOoOOOOO$$$$OOOOOOOOOOOOOOOOOO OOOOOO",
"OOOOOOOOOOOOOOOO#OOOOOOO.OOOoooOOOOOOOOOOOOOOOOOOOOOOOOOO OOOOOO",
"OOOOOOOOOOOOOOOOOOOOOOOO.OOOoooOOOOOOOOOOOOOOOO&OOOOOOOO  OOOOOO",
"OOOOOOOOOOOOOOOOOOOOOOOOO.OoooooOOOOOOOOOOOOOOOOOOOOOOO OOOOOOOO",
"OOOOOOOOOOOOOOOOOOOOOOOOO.OoooooOOOOOOOOOOOOOOOOOOOOOO OOOOOOOOO",
"OOOOOOOOOOOOOOOOOOOOOOOO.OOoooooOOOOOOOOOOOOOOOOOOOOO OOOOOOOOOO",
"OOOOOOOOOOOOOOOOOOOOOOO.OOOoooooOOOOOOOOOOOOOOOOOOOOO OOOOOOOOOO",
"OOOOOOOOO&OOOOOOOOOOOO.OOOOOoooOOOOOOOOOOO&OOOOOOOOOO OOOOOOOOOO",
"OOOOOOOOOOOOOOOOOOOO..OOOOOOOOOOOOOOOOOOOOOOOOOOOOOO OOOOOOOOOOO",
"OOOOOOOOOOOOOOOOOOOO.OOOOOOOOOOOOOOOOOOOOOOOOOOOO   OOOOOOOOOOOO",
"OOOOOOOOOOOOOOOOOOO.OOOOOOOOOOOOOOOOOOOOOOOOOOOO OOOOOOOOOOOOOOO",
"OOOOOOOOOOOOOOOOOO.OOOOOOOOOOOOOOOOOOOOOOOOOOOOO OOOOOOOOOOOOOOO",
"OOOO&OOOOOOOOOOOO.OOOOOOOOOOOOOOOOOOOOOOOOOOOOOOO OOOOOOOOOOOOOO",
"OOOOOOOOOOOOOOOOOO.OOOOOOOOOOOOO&OOOOOOOOOOOOOOOOO OOOOOOOOOOOOO",
"OOOOOOOOOOOOOOOOOO.OOOOOOOOOOOOOOOOOOOOOOOOOOOOOOOO OOOOOOOOOOOO",
"OOOOOOOOOOOOOOOOOOO.OOOOOOOOOOOOOOOOOOOOOOOOOOOOOOO OOOOOOOOOOOO",
"OOOOOOOOOOOOOOOOOOOO.OOOOOOOOOOOOOOOOOOOOOOOOOOOOOOO OOOOOOOOOOO",
"OOOOOOOOOOOOOOOOOOOOO.OOOOOOOOOOOOOOOOOOOOOOOOOOOOOO OOOOOOOOOOO",
"OOOOOOOOOOOOOOOOOOOOOOOOOOOOOOOOOOOOOOOOOOOOOOOOOOOOOOOOOOOOOOOO"
};
